<?xml version="1.0" encoding="UTF-8"?>
<svg id="Ebene_2" data-name="Ebene 2" xmlns="http://www.w3.org/2000/svg" viewBox="0 0 125.37 56.16">
  <g id="Ebene_1-2" data-name="Ebene 1">
    <g>
      <path d="M7.24,14.79c.84-.75,1.26-1.09,2.28-1.92.24-.18,2.02-1.59,2.64-2.03.55-.36,2.11-1.46,2.55-1.65.8-.46,1.57.14,1.66.23.64.63.36,1.68.15,2.09-.62,1.21-1.54,2.14-2.63,2.92-.38.27-1.91,1.41-2.31,1.68-.37.25-.38.3-.14.65.42.62.76,1.29,1.09,1.97.34.71.64,1.44.81,2.21.11.51.16,1.03.21,1.54.04.4.08.81.07,1.21-.02.68,0,2.21-.53,3.73-.13.34-.72,1.13-1.55.07-.48-.61-.9-1.04-2.04-3.77-.2-.47-1.03-2.59-1.62-4.95-.02-.08-.09-.22-.24-.09-.18.11-1.15.96-1.45,1.22-.21.15-.34.41-.38.56-.15.55-.92,3.44-1.34,4.4-.18.4-1.08,2.32-1.85,2.98C2.23,28.2-.02,30.14,0,26.99c0-1.14.9-4.99,1.01-5.74.1-.71.95-4.9,1.1-5.74.04-.24.26-2.06.4-2.89.1-.59.54-2.79.63-3.38.41-2.47,2.35-2.43,2.7-2.31,1.09.01,1.39,1,1.43,1.4.06.67.01,2.79.01,3.34s-.29,2.57-.31,3.02c-.01.23.2.16.27.09Z" style="fill: #1d1d1b; stroke-width: 0px;"/>
      <path d="M101.25,8.92c-.7,2.84-.79,4.23-.8,4.47-.01.34.06.92.79,1.04s1.19-.1,1.68-.8,1.04-2.47,1.43-3.73c.38-1.17,1.25-5.11,1.46-6.04.16-.69.46-1.29.83-1.87.17-.27.66-.99,1.37-1.06,2.07,0,2.06,2.42,1.54,5.11-.24.98-1.4,5.29-2.55,7.54-.32.63-1.45,2.91-2.34,4-.64.71-1.23,1.55-4.17,1.59-.95-.02-3.13-.13-3.76-1.54-.94-1.65-.82-3.32-.55-4.95.16-.81,1.03-4.66,1.3-5.78.18-.76.85-3.48.99-4.03s.83-1.42,1.58-1.42c2.04-.18,1.95,1.03,2,1.52.04.41-.55,4.63-.82,5.93Z" style="fill: #000; stroke-width: 0px;"/>
      <path d="M34.48,16.75c-.07.11-.14.3-.19.42-.16.43-.29.87-.44,1.3-.26.79-.52,1.58-.8,2.36-.13.36-.88,2.3-2.41,3.62-.36.31-.78.45-1.28.41-.73-.07-1.39-.62-.87-2.62.32-1.45.55-2.55.89-3.66.28-1.05.69-2.91.92-3.73.04-.18,1.26-5.19,1.49-5.87.13-.33.27-.79.93-1.05,2.33-1.04,3.62-1.43,4.24-1.56s1.65-.37,2.24-.4c1.29-.03,1.94.53,2.33.97.86,1.15.52,3.04.34,3.73-.21.81-.67,2.24-2.27,3.76-.21.2-.33.3-.74.56-.05.03-.04.05-.01.08.56.5,1.24,1.42,1.5,1.94,1.35,2.45,1.14,3.79.8,4.46-.35.76-.79,1.45-1.46,1.93-.54.25-1.05.19-1.72-.41-.79-.76-1.48-2.45-1.83-3.15-.23-.46-1.03-2.19-1.25-2.61-.09-.16-.2-.4-.29-.49-.04-.06-.1-.05-.15.01ZM35.26,14.03c.6-.09,1.29-.06,1.8-.48.54-.44.71-1.14.94-1.72.16-.5.05-1.26-1.07-1.08-.16.02-.76.21-.99.29-.05.02-.09.01-.12.13-.12.4-.22.89-.27,1.16-.07.39-.29,1.07-.38,1.52-.01.07-.06.19.08.18Z" style="fill: #000; stroke-width: 0px;"/>
      <path d="M52.4,14.3c.34.42.66.8.97,1.18.55.66,1.89,2.88,1.82,3.82-.07,1.05-.24,2.37-1.27,2.74-.44.16-1.41-.09-2.3-1.25-.49-.59-1.96-2.71-2.4-3.46-.21-.35-.7-1.08-.91-1.35-.04-.07-.09-.09-.13.03-.11.26-.31.84-.39,1.09-.23.73-.46,1.47-.71,2.19-.23.7-.45,1.4-.73,2.08-.22.54-.49,1.06-.8,1.55-.48.74-1.58.97-2.34.59-.53-.27-.61-.74-.51-1.21.16-.7,1.52-7.65,1.61-8.02.24-1.03,1.37-5.91,1.64-7.15.08-.5.32-.79.72-.97.8-.41,2.49-1.04,2.95-1.07,3.69-.81,4.63.14,5.49,1.16.82.98,1,2.1.69,3.32-.26,1.02-.81,1.88-1.51,2.65-.55.62-1.14,1.2-1.81,1.69-.21.15-.21.24-.09.38ZM50.74,12.33c.48-.35.78-1.49.8-1.64.07-.45.17-1.42-.93-1.17-.44.07-.87.24-1.07.31-.12.04-.15.11-.18.26-.01.04-.13.69-.29,1.4-.09.37-.21.7-.29,1.07-.02.11-.12.27.2.24.9-.11,1.43-.23,1.76-.48Z" style="fill: #000; stroke-width: 0px;"/>
      <path d="M119.69,9.15c.5.31,1.93,1.18,2.42,1.76,1.03,1.16,1.19,2.26,1.24,2.84.1,1.17-.25,1.95-.48,2.24-.12.16-.46.58-.87.61-.85.03-1.41-.37-2-1.28-.61-.78-1.33-1.73-1.69-2.2-.65-.86-1.43-1.84-1.99-2.3-.12-.09-.3-.12-.39.05-.19.29-.34.65-.55,1.18-.19.45-2.24,4.78-2.29,4.83-.32.32-.83,1.47-2.75,1.32-1.38-.11-1.05-1.78-.86-2.3.21-.6,1.07-3.4,1.3-4.19.18-.65,1.19-4.62,1.51-5.96.19-.8.81-3.63,1.05-4.05.1-.48.66-.64,1.25-.79.05-.03,1.42-.43,2.82-.67,1.33-.22,2.08-.25,3.1-.2,1.76.04,2.22.53,2.62,1.01.78,1.15.8,2.38.67,3.13s-.68,3.32-2.25,4.07c-.42.21-1.45.63-1.81.73-.19.04-.19.11-.04.19ZM117.72,6.94c.82-.55.89-.8,1.11-1.44s.18-.86.02-1.16-.78-.55-1.35-.43c-.11.01-.15.1-.18.23-.13.48-.45,2.16-.6,2.81-.02.11-.07.24.03.24.27.02.68-.06.97-.25Z" style="fill: #000; stroke-width: 0px;"/>
      <path d="M72.57,3.26c.56-.11,1.06.09,1.47.59s.5,1.89.53,2.45c.03.51-.15,2.2-.24,3.04-.02.17-.02.53.49.11.98-.64,3.87-3.71,3.39-3.22s1.14-1.32,1.89-1.93c1.15-1.03,1.68.19,1.61.56-.23,1.99-.56,3.51-2.75,5.58-.07.07-.74.65-1.07.94-.14.1-.19.16-.09.24.47.38,2.69,1.85,3.22,3.66.36,1.53.08,3.13-.28,3.72-.35.61-.87,1.71-2.08,1.68-.37.02-1.04-.13-1.58-1.61-.3-.88-.33-2.2-2.68-5.94-.1-.17-.21-.18-.38-.15-.16.03-.25.1-.26.27-.08,1.04-.38,2.04-.64,3.04-.08.3-.2.6-.32.89-.28.7-.55,1.41-.87,2.1-.21.45-.49.88-.8,1.27-.39.49-1.14.72-1.57.68s-.72-.3-.83-.6c-.31-.77.12-2.14.26-2.72.26-1.14.52-2.28.75-3.42.23-1.14.74-4.33.95-5.62.03-.24.38-2.49.53-3.44,0-.12.11-.62.3-1.06.16-.54.49-.99,1.05-1.1Z" style="fill: #000; stroke-width: 0px;"/>
      <path d="M62.35,9.64c.19-.04.43-.09.62-.13.48-.1.95-.24,1.44-.28.76-.07,1.52-.02,2.2.39.51.31.65.72.39,1.27-.32.62-.72,1.58-3.43,2.19-.54.11-1.52.19-1.76.21-.06,0-.13.02-.13.16-.1.39-.18,1.68-.2,2.19,0,.06,0,.14.08.13.2-.02.38-.04.55-.06,2.64-.38,4.12-.31,4.98.16.47.26.69.74.58,1.26-.19.98-1.05,2.25-2.14,2.64-.29.12-1.55.4-1.9.46-.51.08-2.68.42-3.29.51-.47.07-1.97.26-2.21.34-.39.12-.65,0-.81-.38-.18-.41-.15-.71-.09-1.14.06-.44.21-.86.28-1.29.24-1.16.92-6.42.99-6.85.04-.3.23-1.99.3-2.53.1-.82.28-3.26.39-3.59.14-.78.59-.94,1.14-1.07.34-.04,4.62-.65,6.15-.58,2.65-.03,2.6,1.4,2.38,1.81-.23.43-.27.74-1.22,1.43s-4.23,1.1-4.78,1.23c-.14.04-.31.04-.36.25-.1.38-.16.59-.21,1.09-.01.11-.02.21.07.18Z" style="fill: #000; stroke-width: 0px;"/>
      <path d="M16.33,18.46c.13-.46.89-4.41,2.95-7.27.28-.33.57-.65.86-.97.53-.58,1.92-1.59,3.9-1.57,2.95.29,3.52,2.14,3.66,3.06.45,2.55-.29,4.96-.5,5.55-.5,1.36-1.19,2.58-1.79,3.59s-2.58,3.34-5.47,3.66c-1.07.05-2.74-.13-3.54-2.32-.15-.75-.44-2.21-.06-3.72ZM21.11,20.41c.24-.31.52-.72.68-1,.52-.92,1.27-2.31,1.55-3.02.37-.95.83-1.81.72-2.83-.04-.4-.12-.76-.63-.97-.56-.17-.96-.19-1.51.81-.49.93-.82,1.72-1.17,2.71-.27.77-.52,1.57-.74,2.36-.15.55-.23.88-.35,1.44-.16,1.05,1.01,1.1,1.45.52Z" style="fill: #000; stroke-width: 0px;"/>
      <path d="M86.65,7.26c-.53.06-.97.12-1.47.16-1.32.2-2.06.05-2.23-.71s-.18-2.31.16-3.04c.17-.35.41-.64.92-.79,1.85-.49,4.47-.68,5.02-.72.92-.06,1.95-.07,2.26-.07,2.16-.04,3.41.16,4.19.41,1.14.43,1.48,1.06,1.47,1.34s-.1.57-.26.74c-.35.4-1.44,1.63-4.89,2.12-.52.07-.51.09-.52.63,0,.24-.27,5.38-1.73,10.1-.27.69-.78,1.67-1.16,2.24-.29.42-.93.77-1.3.75-.39-.02-.74-.11-.93-.5-.47-1.01-.3-2.67-.32-3.49-.02-1.36.09-2.7.34-4.04.23-1.24.75-4.38.79-4.79,0-.05.09-.41-.34-.34Z" style="fill: #000; stroke-width: 0px;"/>
      <path d="M84.61,24.45c.07-.22.1-.67.78-.75,1.86-.41,3.21-.8,4.64-.95.84-.09,1.67-.2,2.52-.14,1.59.11,2.14,1.02,1.99,1.66-.13.57-.46.97-.91,1.32-.48.37-1,.56-1.55.8-1.09.47-3.65.63-3.71.65-.03,0-.07-.01-.1.09-.07.16-.33,1.16-.4,1.44-.02.07-.05.16.06.15.3-.05,2.72-.55,3.88-.47,1.76.12,1.56,1.35,1.46,1.65-.1.31-.78,1.6-4.45,2.14-.5.08-1.23.11-1.74.13-.12,0-.11.02-.14.12-.23.72-.59,2.27-.81,3-.03.09-.03.18-.05.31-.01.06.01.07.11.05.84-.12,1.62-.3,2.68-.32,2.57-.19,3.15.66,3.58,1.63s-.3,2.71-2.24,2.8c-.84.09-2.33.4-2.83.49-.64.11-2.17.29-4.05.71-.34.08-.68.17-1.03.24-.2.04-1.19.09-1.51-.2s-.6-.82-.59-1.55c0-.75.9-3.53,1.13-4.23.41-1.25.84-2.5,1.26-3.74.16-.47.73-2.32.74-2.35.15-.56,1.16-4.32,1.29-4.67Z" style="fill: #1d1d1b; stroke-width: 0px;"/>
      <path d="M99.99,33.83c.25-.05,1.97-.16,3.1.02,1.09.2,1.7.43,2.26.71.96.48,1.42,1.09,1.56,1.63.18,1.16-.09,2.24-1.67,2.18-1.19-.02-4.58.3-6.39.62-.6.1-2.95.81-3.47.88s-1.33-.16-1.4-1.37c-.04-.93.58-2.91.81-3.46.49-1.21,2.72-9.36,3.18-10.74.19-.74.66-1.91,2.58-1.94.83-.01,1.19.58,1.34,1.28.23,2-1.28,8.56-1.88,9.95-.02.05-.03.1-.05.18-.02.05-.01.07.03.07Z" style="fill: #1d1d1b; stroke-width: 0px;"/>
      <path d="M80.77,30.48c-.09.24-.76,2.35-2.3,3.89-1.01,1.02-2.94,2.36-5.62,1.14-.1-.06-.22-.15-.29-.19s-.09-.03-.11.03c-.22.83-1.19,3.16-1.33,3.52-.14.37-1.13,2.49-1.56,3.12-.28.41-.87,1.28-1.86,1.24-1.73-.36-1.46-1.49-1.43-1.64.07-.44.5-3.26,2.25-9.37.7-2.54.99-5.27,1.15-5.95.14-.63.26-.99,1.11-1.22.62-.19,2.04-.85,4.16-1.09s3.34-.01,3.87.15c1.69.49,1.93,1.51,2.18,2.36.26.86.07,3.26-.21,4ZM76.94,29.75c.06-.45.36-1.47-.97-1.3-.78.15-1.35.22-1.82.47-.08.05-.14.15-.17.25-.22.87-.55,1.9-.76,2.77-.05.21.02.31.32.27.67-.09,1.34-.24,1.89-.5,1-.51,1.38-1.41,1.51-1.97Z" style="fill: #1d1d1b; stroke-width: 0px;"/>
      <path d="M57.19,30.38c.17-.14,3.68-3.61,4.53-4.1,1.08-.75,1.65-.75,2.08-.72,4.17.16,2.75,3.34,2.54,4.42s-.75,3.33-.79,3.45c-.25.97-.47,1.95-.75,2.92-.27.93-1.04,4.26-1.81,5.57-.18.34-.94,1.11-1.85,1.12s-1.72-.64-1.68-2.37c0-.46,0-.92.02-1.37.03-.6.13-1.21.25-1.8.21-1.09.77-3.24,1.13-4.77.03-.11.04-.22.06-.38,0-.03,0-.05-.06-.01-.07.04-2.36,2.05-2.74,2.38-.42.35-.7.71-1.55.75-1.07.02-1.53-1.05-1.9-1.57-.43-.73-1.25-2.09-1.28-2.13-.04-.09-.09-.06-.11.02-.05.1-1.42,4.2-1.7,4.78-.39.88-1.58,3.84-2.37,5.14-.41.69-1.42.78-1.78.73s-1.33-.29-1.47-1.78c-.08-.58,0-1.14.12-1.7.15-.77.29-1.54.48-2.3.29-1.18.6-2.35.95-3.51.35-1.19,1.74-6.1,1.76-6.13.23-1.12.99-1.88,2.41-1.98,1.16-.05,1.89.57,2.39,1.17.64.84,2.4,3.36,2.9,4.13.07.12.13.14.22.06Z" style="fill: #1d1d1b; stroke-width: 0px;"/>
      <path d="M31.38,35.97c.27-1.12,1.17-4.99,1.37-5.79.3-1.01.92-2.07,1.49-2.4.28-.26,1.27-.68,2.18-.5,1.16.17,1.18,1.37,1.09,2.43-.09.63-.33,1.79-.46,2.53-.28,1.33-1.18,4.86-1.06,5.76.14.83.75,1.29,1.37,1.33,1.02,0,1.58-.41,1.91-1.08s.61-1.99.92-3.11c.29-.96.61-2.96.79-3.8s.17-1.7.4-2.43c.29-1.08.92-1.16,1.64-1.12,1.06.04,1.62.63,1.85,1.54.36,1.49.34,2.69.23,3.55-.47,4.3-1.76,6.98-2.47,8.35-.73,1.2-2.18,3.17-5.28,3.06-4.38-.21-5.32-1.64-5.94-3.98-.14-.82-.5-1.7-.02-4.34Z" style="fill: #1d1d1b; stroke-width: 0px;"/>
      <path d="M21.77,33.32c.71-.66,1.4-1.33,2.13-1.96.69-.6,1.43-1.14,2.2-1.63,2.38-1.55,3.28-1.47,3.8-1.5.78,0,1.12.61.87,1.24-.4.99-1.59,2.34-2.6,3.26-.12.1-.95.97-1.47,1.42-.1.09-.1.11-.07.21.32.7,2.45,4.62,2.73,5.67.76,2.34.92,3.92.89,4.39-.02.64.09,1.69-1.2,2.04-.45.02-.8.07-1.42-.98-.9-1.44-2.53-4.43-2.94-5.18-.52-.94-2.11-3.75-2.18-3.86-.03-.05-.06-.08-.12-.07-.1.01-1.32.43-1.48.49s-.22.21-.28.32c-.1.19-2.12,6.58-2.33,7.08-.14.31-.5,1.05-1.52,1.02-.61,0-1-.77-.99-1.22.02-.6.06-1.2.09-1.8.07-1.35.28-3.67.86-8.61.1-.67.24-1.33.36-2,.4-2.07,1.05-3.54,1.38-3.93.58-.66,1.57-.82,2.45-.72,1.7.13,1.16,2.16,1.04,2.96-.16,1.03-.37,2.11-.54,3.14,0,.06-.06.35,0,.38.12.04.23-.07.3-.14Z" style="fill: #1d1d1b; stroke-width: 0px;"/>
      <path d="M124.77,32.11c-.47-.63-1.1-1.12-1.75-1.55-.63-.42-1.37-.79-2.1-1-1.11-.31-2.36-.16-3.3.44-.1.05-.12.03-.16-.05-.37-.83-1.15-1.42-2.03-1.65-1.24-.33-2.65-.06-3.76.51-.53.27-1.06.88-1.18,1.48-.15.75.17,1.44.71,1.94.92.84,2.17,1.51,3.45,1.39.25-.02.5-.07.74-.14.11-.05.12,0,.1.06-.68,1.99-1.19,4.08-.95,6.18.13,1.14.38,2.25.34,3.41-.04,1.02-.29,2.61-1.6,2.57-1.12-.04-1.53-1.92-2.02-2.68-.59-.91-1.59-1.5-2.7-1.19-2.65.75-.76,3.69-.95,5.38-.08.74-1.2.95-1.68.48-.62-.61-.77-1.62-1.21-2.34-.3-.56-1.07-2.08-2.81-1.91-1.53.15-2.18,1.5-2.31,1.83-.34.71-.33,2.44-.6,2.5-.08-.01-.34-.03-.47-1.45-.13-1.42-1.01-2.17-1.89-2.14-.52,0-1.25.27-1.78.56-.2.11-.94.62-1.43,2.2-.14.49-.33,1.09-.61,1.11-.28.02-.36-.89-.44-1.23-.05-.22-.35-2.43-2.34-2.31-.22-.01-2.72.08-3.38,1.79-.26.62-.25,1.03-.37,1.56-.04.17-.32.98-.82,1.02-.19-.02-.4-.25-.42-.98-.03-.51-.07-1.12-.08-1.21-.03-1.56-1.41-1.63-1.69-1.65-1.41,0-1.78.47-2.26.92s-1.28,2.01-1.56,3.08c-.12.42-.34.89-.72.89-.38,0-.54-1.16-.58-1.6-.01-.15-.11-1.89-1.58-2.12-1.46-.22-2.37,1.53-2.76,2.12-.25.39-.65,1.24-.81,1.2-.17-.04-.19-.6-.22-1.13,0-.03-.01-2.23-1.91-2.24-1.54.08-2.32,1.33-2.59,3-.06.33-.12,1.54-.36,1.58-.11-.02-.19-.17-.26-.74-.14-2.48-1.07-2.97-2.23-2.93-.9,0-2.89.78-3.28,2.36-.14.27-.23,1.34-.45,1.34-.22,0-.33-.73-.41-1.07-.05-.22-.42-1.89-1.8-2.2-.39-.13-2.33.31-3.28,1.13-.19.16-.38.34-.52.54-.31.46-.41,1-.53,1.53-.04.17,0,.95-.63,1-.57.03-.57-.74-.59-.91-.03-.26-.28-2.86-2.05-2.79-1.32-.02-2.01.88-2.3,1.29-.29.4-.39.82-.62,1.3-.29.64-.18,2.08-1.21,2.2-.28-.05-.45-.18-.45-.57,0-.39-.08-1.11-.11-1.46-.02-.41-.41-2-1.78-1.95-.47,0-1.62.07-2.46,1.58-.84,1.52-.48,1.85-.96,1.89-.16,0-.18-.32-.2-.46-.03-.25-.24-1.53-.28-1.77-.04-.24-.17-1.29-1.79-1.13-1.56.07-2.19,1.65-2.32,1.97-.34.97-.49,2.41-.47,2.3.02-.1-.02.3-.12.3-.1,0-.19-.22-.22-.31-.11-.37-.37-1.87-.47-2.17-.08-.23-.36-1.38-1.8-1.18-.59.13-1.16.33-1.7.62-.2.11-.37.27-.53.43-.43.47-1.03,2.08-1.14,2.37-.03.09-.1.44-.33.43-.23,0-.24-.29-.25-.34-.07-.29-.28-2.01-.82-2.5-.44-.39-1.18-1.03-2.83-.49-.73.32-1.69.8-2.16,1.58-.31.46-.41,1-.53,1.53-.04.17-.08.35-.14.51-.12.32-.3.56-.58.55-.28,0-.37-.41-.39-.58-.02-.28-.1-.97-.2-1.57-.06-.34-.18-1.74-1.99-1.74-.73.02-1.58.76-1.73.95-.61.76-1.6,2.37-1.61,3.11-.03.3.05.85.5.9.82.09.94-.15,1.03-.41.46-1.8,1.45-2.64,1.59-2.73.08-.05.16-.03.18.07.08.28.26,1.28.4,1.97.4,1.66,1.93,1.65,2,1.66.9.07,1.6-.42,1.75-.56.61-.58.64-1.89,1.32-2.79.32-.55.8-.81,1.19-.9.6-.16.72.17.76.33.07.27.13.53.19.79.5,2.54,2,2.47,2.11,2.5,1.36.07,1.65-.76,1.89-1.22.24-.46.75-1.72.93-1.99.2-.3.31-.4.63-.54.47-.19.55.28.59.43.11.43.2.87.33,1.3.11.39.42,1.91,2.14,1.79,1-.04,1.35-.54,1.51-.92.08-.21.21-1.49.41-2.34.11-.47.25-.9.71-1.08.33-.12.31.46.33.63.05.38.1.77.2,1.14.45,1.83,1.81,1.88,2.22,1.84.41-.04,1.08-.46,1.27-.9.17-.39.26-.81.37-1.22.11-.42.6-1.45,1.13-1.45.39-.02.25,1.29.33,1.66.09,1.23.94,1.72,1.17,1.79.24.08.64.17,1.14.21.95-.11,1.46-.69,1.9-1.35.55-.83.73-1.58.85-2.1.14-.54.54-1.04.68-1.2.18-.22.67-.45.73.31.16,1.1.37,1.77.47,2.09.43,1.1,1.58,1.04,1.94,1.04.36,0,1.29-.23,1.71-.66.31-.31.59-.64.78-1.04.17-.35.29-1.07.31-1.12.23-1.08.98-1.24,1.37-1.37.72-.18.87.71.94,1.03.16.72.36,1.89,1.01,2.34.44.33,1.55.21,1.76.18.78-.11,1.16-1.09,1.22-1.25.38-1.83,1.29-2.65,1.8-2.64.51,0,.54,1.41.67,1.84.49,1.73,1.67,1.8,2.12,1.79.98-.05,1.38-.55,1.53-.92.29-.68.31-1.7.36-2,.05-.31.22-.86.43-1.14.2-.27.43-.49.6-.48.41.08.18,1.9.6,2.7.61,1.07,1.14,1.18,1.75,1.12.38-.04.86-.59,1.2-1.16.16-.27.74-1.38,1.1-1.99.26-.5.58-.45.65-.03.05.38.23,1.43.47,2.09.11.36.77,1.09,1.97,1.04.85.01,1.53-.51,1.68-.66.78-.71.9-1.65,1-1.98.18-.58.42-1.17.7-1.61.3-.48.61-.74.78-.75.17,0,.18.72.22,1,.04.28-.13,2.76,2.43,2.79,1.69-.12,2.24-1.3,2.43-1.7.17-.35.22-.71.24-1.09s.14-.93.54-1.21c.39-.28.92-.49,1.31-.44.53.08.56,1.15.6,1.35.12.84.68,2.24,2.09,2.49,1.03.12,1.63-.45,1.75-.79.09-.25.52-1.36.81-2.04.28-.61.82-1.2,1.1-1.19.51.06.55,1.64.63,1.93.23,1.28,1.55,1.72,2.01,1.7,1.34-.08,1.78-1.11,1.92-1.82,0-.3.21-1.52.29-1.76.05-.14.34-.85.97-.91.47-.02.95,1,1.08,1.22.45.74.61,1.61,1.13,2.31.74.99,1.75,1.25,2.94,1.09,2.6-.36,2.36-3.03,1.72-5.02-.1-.31-.41-1.11.09-1.15.61-.05.95,1.12,1.11,1.52.48,1.17,1.19,2.28,2.56,2.44,1.2.14,2.4-.5,3.07-1.48.8-1.17.92-2.72.81-4.09-.12-1.45-.52-2.81-.35-4.28.14-1.2.45-2.34.85-3.48.01-.04.05-.2.14-.07.35.41.74.72,1.22,1,1.46.84,3.26.95,4.86.54.77-.2,1.59-.65,1.88-1.45.26-.7-.08-1.47-.51-2.03ZM115.88,31.16c-.2.23-.81.79-1.86.64-.88-.16-1.51-.77-1.73-1.04-.05-.05-.07-.09,0-.14.5-.46,1.05-.6,1.7-.67s1.62.2,1.9.94c.05.11.07.2,0,.26ZM123.4,33.63c-.12.06-.22.09-.42.14-1.03.28-2.2.34-3.2-.09-.49-.21-1.4-.96-1.66-1.67-.02-.04-.03-.13.04-.18.21-.26.89-.75,1.96-.59.98.18,1.89.74,2.64,1.38.16.14.67.69.73.82.05.09.04.15-.08.2Z" style="fill: #1de800; stroke-width: 0px;"/>
    </g>
  </g>
</svg>